<svg width="328" height="461" viewBox="0 0 328 461" fill="none" xmlns="http://www.w3.org/2000/svg">
<path d="M192.06 341.3C192.59 341.96 203.25 338.45 210.91 351.56C216.94 361.87 215.08 375.23 214.87 374.84C225.23 361.53 238.12 352.85 247.81 341.82C248.08 342.07 231.86 343.83 226.07 335.57C221.03 328.39 222.3 318.17 221.31 317.35C209.97 325.84 203.4 332.81 192.06 341.3Z" fill="white"/>
<path d="M83.33 239.62C83.95 240.2 94.96 237.38 104.05 244.83C113.14 252.28 111.61 267.65 111.34 267.29C119.66 252.62 133.71 241.21 141.69 228.89C141.99 229.1 127.25 230.96 119.12 224.87C113.75 220.85 113.26 207.65 112.17 206.98C102.18 217.03 93.31 229.58 83.33 239.63V239.62Z" fill="white"/>
<path d="M109.08 313.43C109.39 329.31 107.38 329.81 101.18 338.24C94.98 346.67 80.01 348.4 80.32 348.08C96.07 354.1 104.84 364.64 118.22 370.69C118.06 371.02 115.77 357.7 120.9 348.06C125.02 340.31 138.96 342.31 139.46 341.13C128.02 332.77 120.51 321.79 109.07 313.43H109.08Z" fill="white"/>
<path d="M198.53 228.949H132.33C119.489 228.949 109.08 239.359 109.08 252.199V318.399C109.08 331.24 119.489 341.649 132.33 341.649H198.53C211.371 341.649 221.78 331.24 221.78 318.399V252.199C221.78 239.359 211.371 228.949 198.53 228.949Z" fill="white"/>
<path d="M303.93 341.65H237.73C224.889 341.65 214.48 352.06 214.48 364.9V431.1C214.48 443.941 224.889 454.35 237.73 454.35H303.93C316.771 454.35 327.18 443.941 327.18 431.1V364.9C327.18 352.06 316.771 341.65 303.93 341.65Z" fill="white"/>
<path d="M94.96 347.311H28.76C15.9194 347.311 5.51001 357.72 5.51001 370.561V436.761C5.51001 449.601 15.9194 460.011 28.76 460.011H94.96C107.801 460.011 118.21 449.601 118.21 436.761V370.561C118.21 357.72 107.801 347.311 94.96 347.311Z" fill="white"/>
<path d="M89.44 240.7H23.25C10.41 240.7 0 230.29 0 217.45V151.25C0 138.41 10.41 128 23.25 128H89.44C102.28 128 112.69 138.41 112.17 151.03V217.22C112.69 230.29 102.28 240.7 89.44 240.7Z" fill="white"/>
</svg>
